<?xml version="1.0" standalone="no"?><!DOCTYPE svg PUBLIC "-//W3C//DTD SVG 1.1//EN" "http://www.w3.org/Graphics/SVG/1.1/DTD/svg11.dtd"><svg t="1622772490540" class="icon" viewBox="0 0 1024 1024" version="1.1" xmlns="http://www.w3.org/2000/svg" p-id="2979" xmlns:xlink="http://www.w3.org/1999/xlink" width="200" height="200"><defs><style type="text/css"></style></defs><path d="M675.212843 791.694519c20.47872 19.902756 20.47872 52.348728 0 72.31548L512.023042 1023.744016 400.989982 915.142804a50.172864 50.172864 0 0 1 0-72.251485 53.244672 53.244672 0 0 1 73.91538 0l36.989688 35.83776 89.338416-87.610524a53.75664 53.75664 0 0 1 73.915381 0.63996z m243.504781 232.113493h-93.306169a51.580776 51.580776 0 0 1-52.348728-51.1968c0-28.414224 23.35854-51.1968 52.348728-51.1968h22.206612c36.349728 0 63.100056-35.83776 49.468909-68.283733-63.164052-151.862509-212.210737-238.897069-385.12793-238.897069-173.493157 0-321.963877 87.03456-385.12793 238.897069-13.631148 33.021936 13.11918 68.283732 49.532905 68.283733H198.442641c29.054184 0 52.348728 22.782576 52.348728 51.1968 0 28.414224-23.294544 51.1968-52.348728 51.1968H105.264464c-65.467908 0-116.664708-58.620336-103.03356-121.144428C40.37252 730.834323 159.341085 603.99425 315.747309 545.885882a301.869133 301.869133 0 0 1-117.11268-238.897069c0-182.004625 160.949941-326.507593 350.954065-304.876945 137.591401 15.871008 251.440285 122.87232 272.494969 257.071933 17.5989 116.088744-30.71808 221.298169-113.784888 286.702081 156.406225 57.468408 275.310793 184.308481 313.452409 356.713706 13.631148 62.524092-37.565652 121.144428-103.03356 121.144428z m-198.003625-716.755203c0-113.208924-93.818136-204.787201-208.754953-204.787201-114.87282 0-208.754953 91.578276-208.754953 204.787201 0 113.208924 93.306168 204.787201 208.754953 204.787201 115.51278 0 208.754953-91.578276 208.754953-204.787201z" p-id="2980"></path></svg>